<svg width="93" height="85" viewBox="0 0 93 85" fill="none" xmlns="http://www.w3.org/2000/svg">
<path d="M25.2733 16.8413H16.8413V25.2733H25.2733V16.8413Z" fill="white"/>
<path d="M67.4333 25.2733V33.7053H75.8654V25.2733V16.8413H67.4333V25.2733Z" fill="#DE2D25"/>
<path d="M59.0015 42.1373V50.5693H67.4335V42.1373V33.7053H59.0015V42.1373Z" fill="#DE2D25"/>
<path d="M59.0013 50.5693H50.5693V59.0013H59.0013V50.5693Z" fill="#DE2D25"/>
<path d="M33.7053 59.0015V67.4335H42.1373H50.5693V59.0015H42.1373H33.7053Z" fill="#DE2D25"/>
<path d="M42.1373 16.8413H33.7053V25.2733H42.1373V16.8413Z" fill="#DE2D25"/>
<path d="M59.0013 25.2733H50.5693H42.1373H33.7053V16.8413H25.2733V25.2733H16.8413V33.7053V42.1373V50.5693H25.2733V59.0013H33.7053H42.1373H50.5693V50.5693H59.0013V42.1373V33.7053H67.4333V25.2733V16.8413H59.0013V25.2733Z" fill="#FF3A32"/>
<path d="M75.8652 25.2733V33.7053H84.2972V25.2733V16.8413H75.8652V25.2733Z" fill="#AA1A1A"/>
<path d="M67.4333 42.1373V50.5693H75.8654V42.1373V33.7053H67.4333V42.1373Z" fill="#AA1A1A"/>
<path d="M67.4335 50.5693H59.0015V59.0013H67.4335V50.5693Z" fill="#AA1A1A"/>
<path d="M59.0013 59.0015H50.5693V67.4335H59.0013V59.0015Z" fill="#AA1A1A"/>
<path d="M50.5695 67.4333H42.1375V75.8654H50.5695V67.4333Z" fill="#AA1A1A"/>
<path d="M59.0015 8.40942V16.8414H67.4335H75.8655V8.40942H67.4335H59.0015Z" fill="#FF8274"/>
<path d="M59.0013 16.8413H50.5693V25.2733H59.0013V16.8413Z" fill="#FF8274"/>
<path d="M16.8413 8.40942V16.8414H25.2733H33.7053V8.40942H25.2733H16.8413Z" fill="#FF8274"/>
<path d="M8.40942 25.2733V33.7053H16.8414V25.2733V16.8413H8.40942V25.2733Z" fill="#FF8274"/>
<path d="M84.2974 33.7053H92.7067V25.2733V16.8413H84.2974V25.2733V33.7053Z" fill="#1D2920"/>
<path d="M75.8652 42.1373V50.5693H84.2972V42.1373V33.7053H75.8652V42.1373Z" fill="#1D2920"/>
<path d="M84.2972 8.40942H75.8652V16.8414H84.2972V8.40942Z" fill="#1D2920"/>
<path d="M75.8654 50.5693H67.4333V59.0013H75.8654V50.5693Z" fill="#1D2920"/>
<path d="M75.8655 8.40931V0H67.4335H59.0015V8.40931H67.4335H75.8655Z" fill="#1D2920"/>
<path d="M67.4335 59.0015H59.0015V67.4335H67.4335V59.0015Z" fill="#1D2920"/>
<path d="M59.0013 67.4333H50.5693V75.8654H59.0013V67.4333Z" fill="#1D2920"/>
<path d="M59.0013 8.40942H50.5693V16.8414H59.0013V8.40942Z" fill="#1D2920"/>
<path d="M50.5695 75.8652H42.1375V84.2972H50.5695V75.8652Z" fill="#1D2920"/>
<path d="M50.5695 16.8413H42.1375V25.2733H50.5695V16.8413Z" fill="#1D2920"/>
<path d="M42.1373 67.4333H33.7053V75.8654H42.1373V67.4333Z" fill="#1D2920"/>
<path d="M42.1373 8.40942H33.7053V16.8414H42.1373V8.40942Z" fill="#1D2920"/>
<path d="M33.7054 59.0015H25.2734V67.4335H33.7054V59.0015Z" fill="#1D2920"/>
<path d="M33.7053 8.40931V0H25.2733H16.8413V8.40931H25.2733H33.7053Z" fill="#1D2920"/>
<path d="M25.2733 50.5693H16.8413V59.0013H25.2733V50.5693Z" fill="#1D2920"/>
<path d="M16.8414 33.7053H8.40942V42.1373V50.5693H16.8414V42.1373V33.7053Z" fill="#1D2920"/>
<path d="M16.8414 8.40942H8.40942V16.8414H16.8414V8.40942Z" fill="#1D2920"/>
<path d="M8.40931 25.2733V16.8413H0V25.2733V33.7053H8.40931V25.2733Z" fill="#1D2920"/>
</svg>
